<svg width="320" height="320" viewBox="0 0 320 320" fill="none" xmlns="http://www.w3.org/2000/svg">
<path d="M244.397 142.249C258.259 143.439 269.166 154.913 269.166 169.052C269.166 183.231 258.259 194.704 244.397 195.912V196.238H206.342V196.122H206.236C191.292 196.122 179.166 183.997 179.166 169.053C179.166 154.108 191.292 141.982 206.236 141.982C206.266 141.982 206.286 142.039 206.342 142.039V141.982H244.397V142.249Z" fill="#2B3B47"/>
<path d="M105.746 55.5181C106.588 50.0719 98.125 43.2169 98.125 43.2169C98.125 42.861 98.2664 42.5197 98.518 42.268C98.7697 42.0164 99.111 41.875 99.4669 41.875H124.079C125.077 41.875 125.726 40.8256 125.279 39.9331L121.854 33.0831C121.353 32.08 122.225 30.9394 123.323 31.1687C131.01 32.7719 155.66 39.9356 179.564 50.3925C190.631 54.0956 201.029 59.7019 210.486 66.7837C217.877 71.7362 223.978 77.0125 227.809 82.49L227.803 82.4887C249.971 106.604 263.807 139.567 263.807 172.472C263.807 235.926 212.367 287.366 148.914 287.366C85.46 287.366 34.0206 235.926 34.0206 172.472C34.0213 124.289 63.6863 75.9813 105.746 55.5181Z" fill="#7CB224"/>
<path d="M126.647 154.375C128.417 133.768 145.472 117.554 166.491 117.554C187.568 117.554 204.624 133.768 206.42 154.375L206.905 180.266H206.732V180.424C206.732 202.64 188.707 220.665 166.491 220.665C144.275 220.665 126.25 202.64 126.25 180.424C126.25 180.381 126.334 180.351 126.334 180.267H126.25V154.375H126.647Z" fill="#E5E4DF"/>
<path d="M151.711 160.354C152.369 152.682 158.72 146.645 166.546 146.645C174.393 146.645 180.744 152.682 181.412 160.354H181.593V181.417H181.529V181.476C181.529 189.747 174.818 196.459 166.546 196.459C158.274 196.459 151.563 189.747 151.563 181.476C151.563 181.459 151.594 181.449 151.594 181.417H151.563V160.354H151.711Z" fill="#2B3B47"/>
<path d="M249.625 179.064C229.872 179.064 210.759 226.42 218.019 233.68C225.279 240.94 278.287 239.406 295.846 233.68C313.697 227.859 259.884 179.064 249.625 179.064Z" fill="#A4B982"/>
</svg>
