<svg width="50" height="50" viewBox="0 0 50 50" fill="none" xmlns="http://www.w3.org/2000/svg">
<path d="M33.3333 35.4167V29.1667H18.75V20.8333H33.3333V14.5833L43.75 25L33.3333 35.4167ZM29.1667 4.16666C30.2717 4.16666 31.3315 4.60565 32.1129 5.38705C32.8943 6.16845 33.3333 7.22826 33.3333 8.33333V12.5H29.1667V8.33333H10.4167V41.6667H29.1667V37.5H33.3333V41.6667C33.3333 42.7717 32.8943 43.8315 32.1129 44.6129C31.3315 45.3943 30.2717 45.8333 29.1667 45.8333H10.4167C9.3116 45.8333 8.25179 45.3943 7.47039 44.6129C6.68899 43.8315 6.25 42.7717 6.25 41.6667V8.33333C6.25 7.22826 6.68899 6.16845 7.47039 5.38705C8.25179 4.60565 9.3116 4.16666 10.4167 4.16666H29.1667Z" fill="#C9C9C9"/>
</svg>
