<svg width="50" height="50" viewBox="0 0 50 50" fill="none" xmlns="http://www.w3.org/2000/svg">
<g clip-path="url(#clip0_7_84)">
<path d="M25.0002 12.5C27.2918 12.5 29.1668 14.375 29.1668 16.6667C29.1668 18.9583 27.2918 20.8333 25.0002 20.8333C22.7085 20.8333 20.8335 18.9583 20.8335 16.6667C20.8335 14.375 22.7085 12.5 25.0002 12.5ZM25.0002 33.3333C30.6252 33.3333 37.0835 36.0208 37.5002 37.5H12.5002C12.9793 36 19.396 33.3333 25.0002 33.3333ZM25.0002 8.33333C20.396 8.33333 16.6668 12.0625 16.6668 16.6667C16.6668 21.2708 20.396 25 25.0002 25C29.6043 25 33.3335 21.2708 33.3335 16.6667C33.3335 12.0625 29.6043 8.33333 25.0002 8.33333ZM25.0002 29.1667C19.4377 29.1667 8.3335 31.9583 8.3335 37.5V41.6667H41.6668V37.5C41.6668 31.9583 30.5627 29.1667 25.0002 29.1667Z" fill="white"/>
</g>
<defs>
<clipPath id="clip0_7_84">
<rect width="50" height="50" fill="white"/>
</clipPath>
</defs>
</svg>
