<svg width="96" height="96" viewBox="0 0 96 96" fill="none" xmlns="http://www.w3.org/2000/svg">
<path d="M24.644 68.036L72 68M48 12C55.672 12 62.08 17.4 63.64 24.604C65.6684 24.0551 67.7851 23.911 69.8691 24.1801C71.9532 24.4492 73.9638 25.1262 75.7863 26.1723C77.6087 27.2185 79.2072 28.6133 80.4906 30.2773C81.774 31.9412 82.7171 33.8416 83.266 35.87C83.8149 37.8984 83.959 40.0151 83.6899 42.0991C83.4208 44.1832 82.7438 46.1938 81.6977 48.0163C80.6515 49.8387 79.2567 51.4373 77.5927 52.7206C75.9288 54.004 74.0284 54.9471 72 55.496V84H24V55.496C21.9235 54.9908 19.9693 54.0749 18.2524 52.8024C16.5355 51.5299 15.0909 49.9265 14.0035 48.0867C12.9162 46.247 12.2082 44.2082 11.9214 42.0905C11.6345 39.9728 11.7746 37.8191 12.3334 35.7564C12.8921 33.6937 13.8582 31.7638 15.1747 30.0804C16.4912 28.397 18.1314 26.9942 19.9986 25.9548C21.8658 24.9154 23.9223 24.2604 26.0467 24.0284C28.1711 23.7964 30.3204 23.9921 32.368 24.604C33.1427 21.0339 35.116 17.8366 37.9599 15.5436C40.8038 13.2505 44.3468 12.0001 48 12Z" stroke="#550312" stroke-width="6" stroke-linecap="round" stroke-linejoin="round"/>
</svg>
