<svg width="24" height="25" viewBox="0 0 24 25" fill="none" xmlns="http://www.w3.org/2000/svg">
<path d="M11.88 9.64C13.16 9.7 13.49 10.79 13.51 11.3H15.3C15.22 9.32 13.81 8.11 11.85 8.11C9.64 8.11 8 9.5 8 12.64C8 14.58 8.93 16.88 11.84 16.88C14.06 16.88 15.25 15.23 15.28 13.93H13.49C13.46 14.52 13.04 15.31 11.86 15.37C10.55 15.33 10 14.31 10 12.64C10 9.75 11.28 9.66 11.88 9.64ZM12 2.5C6.48 2.5 2 6.98 2 12.5C2 18.02 6.48 22.5 12 22.5C17.52 22.5 22 18.02 22 12.5C22 6.98 17.52 2.5 12 2.5ZM12 20.5C7.59 20.5 4 16.91 4 12.5C4 8.09 7.59 4.5 12 4.5C16.41 4.5 20 8.09 20 12.5C20 16.91 16.41 20.5 12 20.5Z" fill="black"/>
</svg>
