<svg width="96" height="96" viewBox="0 0 96 96" fill="none" xmlns="http://www.w3.org/2000/svg">
<path d="M48 8C43.5493 7.99925 39.203 9.34793 35.5346 11.8681C31.8661 14.3882 29.048 17.9613 27.452 22.116C25.7928 21.6376 24.1107 21.2424 22.412 20.932C18.9185 20.2995 15.3743 19.9889 11.824 20.004L11.136 20.02L10.944 20.028C10.1942 20.0579 9.48191 20.3642 8.94431 20.8877C8.40671 21.4113 8.08176 22.1152 8.032 22.864L8.028 22.944L8.02 23.14C7.99265 24.1853 7.99932 25.2312 8.04 26.276C8.12 28.328 8.344 31.184 8.932 34.412C9.468 37.352 10.324 40.672 11.692 44H11C10.2044 44 9.44129 44.3161 8.87868 44.8787C8.31607 45.4413 8 46.2044 8 47V48C8 70.092 25.908 88 48 88C70.092 88 88 70.092 88 48V47C88 46.2044 87.6839 45.4413 87.1213 44.8787C86.5587 44.3161 85.7956 44 85 44H83.988C84.101 39.5855 82.713 35.2632 80.0507 31.7399C77.3885 28.2167 73.6096 25.7009 69.332 24.604C68.1296 19.8572 65.3785 15.647 61.5141 12.6396C57.6497 9.63227 52.8927 7.9996 47.996 8H48ZM33.092 24.16C34.2631 21.1723 36.3053 18.6057 38.9536 16.7933C41.6018 14.981 44.7337 14.0066 47.9427 13.9966C51.1517 13.9867 54.2896 14.9417 56.949 16.7377C59.6084 18.5337 61.6664 21.0876 62.856 24.068C59.4163 24.3571 56.1149 25.5535 53.2885 27.5352C50.4622 29.5168 48.2122 32.2128 46.768 35.348C45.6892 33.7499 44.461 32.2578 43.1 30.892C40.104 27.896 36.62 25.732 33.092 24.16ZM78 43.5C78 43.668 77.996 43.836 77.988 44H51.072L51 43.8V43.5C51 39.9196 52.4223 36.4858 54.9541 33.9541C57.4858 31.4223 60.9196 30 64.5 30C68.0804 30 71.5142 31.4223 74.0459 33.9541C76.5777 36.4858 78 39.9196 78 43.5V43.5ZM38.856 35.136C41.428 37.704 43.292 40.796 44.636 44H36.236L29.12 36.88C28.8454 36.5853 28.5141 36.3488 28.1462 36.1849C27.7782 36.0209 27.3809 35.9327 26.9781 35.9256C26.5753 35.9185 26.1752 35.9926 25.8016 36.1435C25.4281 36.2944 25.0887 36.519 24.8038 36.8038C24.519 37.0887 24.2944 37.4281 24.1435 37.8016C23.9926 38.1752 23.9185 38.5753 23.9256 38.9781C23.9327 39.3809 24.0209 39.7782 24.1849 40.1462C24.3488 40.5141 24.5853 40.8454 24.88 41.12L27.76 44H18.28C16.52 40.496 15.464 36.748 14.84 33.332C14.4024 30.9245 14.1351 28.4891 14.04 26.044V26.036H14.044C15.884 26.104 18.448 26.308 21.332 26.836C27.172 27.904 33.972 30.236 38.864 35.136H38.856ZM19.152 66H76.848C73.7944 70.8976 69.5434 74.9366 64.4961 77.736C59.4488 80.5354 53.7716 82.0029 48 82C42.2284 82.0029 36.5512 80.5354 31.5039 77.736C26.4566 74.9366 22.2056 70.8976 19.152 66V66ZM14.056 50H81.94C81.744 53.4215 81.0292 56.7933 79.82 60H16.18C14.9711 56.7932 14.2563 53.4214 14.06 50H14.056ZM10.872 20.032H10.944H10.872Z" fill="#550312"/>
</svg>
