<svg width="128" height="128" viewBox="0 0 128 128" fill="none" xmlns="http://www.w3.org/2000/svg">
<path fill-rule="evenodd" clip-rule="evenodd" d="M102.4 12.7999H25.6003V25.5997H115.2V128L128 115.2V12.7999H102.4Z" fill="url(#paint0_linear_13_219)"/>
<path fill-rule="evenodd" clip-rule="evenodd" d="M102.4 25.5997V115.2H0L12.7999 128H89.6004H115.2V102.4V25.5997H102.4Z" fill="url(#paint1_linear_13_219)"/>
<path fill-rule="evenodd" clip-rule="evenodd" d="M12.7999 0L0 12.7999V89.5997V115.2H25.6004H102.4V102.4H12.7999V0Z" fill="url(#paint2_linear_13_219)"/>
<path fill-rule="evenodd" clip-rule="evenodd" d="M12.7998 0V25.5997V102.4H25.6003V12.7999H128L115.2 0H12.7998Z" fill="url(#paint3_linear_13_219)"/>
<path fill-rule="evenodd" clip-rule="evenodd" d="M102.4 30.5775H115.2V25.5997H102.4V30.5775Z" fill="#C8C8C8"/>
<defs>
<linearGradient id="paint0_linear_13_219" x1="76.8001" y1="42.7093" x2="76.8001" y2="128" gradientUnits="userSpaceOnUse">
<stop stop-color="#FEFEFE"/>
<stop offset="1" stop-color="#D2D4D5"/>
</linearGradient>
<linearGradient id="paint1_linear_13_219" x1="57.6001" y1="25.5997" x2="57.6001" y2="128" gradientUnits="userSpaceOnUse">
<stop stop-color="#D4D5D6"/>
<stop offset="1" stop-color="#FAFBFB"/>
</linearGradient>
<linearGradient id="paint2_linear_13_219" x1="73.421" y1="43.4742" x2="-7.28128" y2="105.767" gradientUnits="userSpaceOnUse">
<stop stop-color="#FEFEFE"/>
<stop offset="1" stop-color="#D2D4D5"/>
</linearGradient>
<linearGradient id="paint3_linear_13_219" x1="142.406" y1="102.4" x2="42.5191" y2="102.4" gradientUnits="userSpaceOnUse">
<stop stop-color="#FDFDFD"/>
<stop offset="1" stop-color="#D5D7D8"/>
</linearGradient>
</defs>
</svg>
